<svg xmlns="http://www.w3.org/2000/svg" xmlns:xlink="http://www.w3.org/1999/xlink" viewBox="0 0 65.042 33.042" fill="#fff" fill-rule="evenodd" stroke="#000" stroke-linecap="round" stroke-linejoin="round"><use xlink:href="#E" x=".521" y=".521"/><defs><linearGradient id="A" x1="2.88%" x2="112.05%" y1="53.57%" y2="67.09%"><stop offset="0%" stop-color="#89c442"/><stop offset="100%" stop-color="#74b844"/></linearGradient><linearGradient id="B" x1="-6.71%" x2="115.17%" y1="43.22%" y2="56.60%"><stop offset="0%" stop-color="#74b844"/><stop offset="100%" stop-color="#4a9634"/></linearGradient><linearGradient id="C" x1="-634.26%" x2="-746.06%" y1="-1392.52%" y2="-1368.25%"><stop offset="0%" stop-color="#c1ea71"/><stop offset="100%" stop-color="#acda55"/></linearGradient><linearGradient id="D" x1="-1042.88%" x2="-1197.39%" y1="-1548.05%" y2="-1524.52%"><stop offset="0%" stop-color="#acda55"/><stop offset="100%" stop-color="#89c442"/></linearGradient></defs><symbol id="E" overflow="visible"><g stroke="none"><g fill-rule="nonzero"><path d="M33.255 12.077c.292.341 6.026 2.251 8.019 4.571s2.864 4.392 2.583 6.384-1.501 1.959-2.032 2.684-1.263 1.63-2.677 1.526c-1.848-.125-3.754-1.047-5.131-4.253s-1.272-6.218-1.161-7.89.396-3.02.396-3.02z" fill="url(#A)"/><path d="M1e-13 1e-13l8.5883 12.8012L8.1923 13.243" fill="url(#B)" transform="translate(32.9 13.15)"/></g><path d="M0 30.944l.081-.567c2.29-1.219 5.144-1.691 7.465-2.868.696.313 1.006-.139 1.749-.097.271.243-.339.569.389.519 1.654.208 3.264-.088 4.89-.227 1.716-.146 3.419.017 5.101-.083.537-.031 1.355-.776 2.024-.417.298.54-.972.587-.632 1.183 3.367.792 11.79 4.141 13.231.498.021.222-.252.662.146.6 2.839-1.272 7.664-4.015 8.515-4.734.934-.79 2.189-.765 3.398-1.045 2.189-.505 4.544-1.021 6.449-2.129 1.178.817 3.64 1.224 4.956.938 1.374-.298 3.506-2.58 4.648-3.385.448-.317 1.105-.932 1.587-.584-.313.222.057.873-.34.761-.208-.396-.622.063-.924-.016-1.149.942-2.343 1.824-3.512 2.737-.546.336.526.684-.104.792-3.025.601-7.632-.905-9.539 1.186-3.023 1.034-5.879 1.296-8.859 2.902-1.711.922-3.804 2.602-5.587 3.483-.313.15-.744.202-1.101.422-.434.267-.542.601-.907.681-.912.208-2.797-.279-3.985-.452-3.959-.575-8.185-2.189-11.919-2.393-1.477-.081-3.231.153-4.89.229-3.549.161-5.769.245-8.614 1.202-1.163.392-2.953 1.428-3.707.86z" fill="#3c3c3b"/><g fill-rule="nonzero"><path d="M54.845 0c-.399.646-9.491 5.334-12.22 9.735s-3.507 7.866-2.518 11.123 2.88 3.11 3.957 4.184 2.54 2.378 4.876 1.852c3.058-.69 6.006-2.731 7.471-8.442s.505-10.73-.104-13.497S54.854.007 54.854.007z" fill="url(#C)"/><path d="M54.689.977L43.664 24.613l.646.649" fill="url(#D)"/></g></g></symbol></svg>